<mxfile host="65bd71144e">
    <diagram id="vy3ilFzBJYP-rw148ibW" name="Page-1">
        <mxGraphModel dx="1291" dy="532" grid="0" gridSize="10" guides="1" tooltips="1" connect="1" arrows="1" fold="1" page="1" pageScale="1" pageWidth="1600" pageHeight="1200" math="0" shadow="0">
            <root>
                <mxCell id="0"/>
                <mxCell id="1" parent="0"/>
                <mxCell id="6" value="" style="shape=cube;whiteSpace=wrap;html=1;boundedLbl=1;backgroundOutline=1;darkOpacity=0.05;darkOpacity2=0.1;size=53;" vertex="1" parent="1">
                    <mxGeometry x="317" y="330" width="146" height="80" as="geometry"/>
                </mxCell>
                <mxCell id="8" value="" style="shape=cube;whiteSpace=wrap;html=1;boundedLbl=1;backgroundOutline=1;darkOpacity=0.05;darkOpacity2=0.1;size=3;rotation=-30;" vertex="1" parent="1">
                    <mxGeometry x="208" y="243" width="20" height="20" as="geometry"/>
                </mxCell>
                <mxCell id="9" value="" style="shape=cube;whiteSpace=wrap;html=1;boundedLbl=1;backgroundOutline=1;darkOpacity=0.05;darkOpacity2=0.1;size=3;rotation=-30;" vertex="1" parent="1">
                    <mxGeometry x="208" y="280" width="20" height="20" as="geometry"/>
                </mxCell>
                <mxCell id="10" value="" style="shape=cube;whiteSpace=wrap;html=1;boundedLbl=1;backgroundOutline=1;darkOpacity=0.05;darkOpacity2=0.1;size=3;rotation=-30;" vertex="1" parent="1">
                    <mxGeometry x="208" y="316" width="20" height="20" as="geometry"/>
                </mxCell>
                <mxCell id="11" value="" style="shape=cube;whiteSpace=wrap;html=1;boundedLbl=1;backgroundOutline=1;darkOpacity=0.05;darkOpacity2=0.1;size=3;rotation=-30;" vertex="1" parent="1">
                    <mxGeometry x="208" y="353" width="20" height="20" as="geometry"/>
                </mxCell>
                <mxCell id="12" value="" style="shape=cube;whiteSpace=wrap;html=1;boundedLbl=1;backgroundOutline=1;darkOpacity=0.05;darkOpacity2=0.1;size=3;rotation=-30;" vertex="1" parent="1">
                    <mxGeometry x="208" y="390" width="20" height="20" as="geometry"/>
                </mxCell>
                <mxCell id="13" value="" style="shape=cube;whiteSpace=wrap;html=1;boundedLbl=1;backgroundOutline=1;darkOpacity=0.05;darkOpacity2=0.1;size=3;rotation=-30;" vertex="1" parent="1">
                    <mxGeometry x="208" y="426" width="20" height="20" as="geometry"/>
                </mxCell>
                <mxCell id="14" value="" style="shape=cube;whiteSpace=wrap;html=1;boundedLbl=1;backgroundOutline=1;darkOpacity=0.05;darkOpacity2=0.1;size=3;rotation=-30;" vertex="1" parent="1">
                    <mxGeometry x="208" y="463" width="20" height="20" as="geometry"/>
                </mxCell>
                <mxCell id="18" value="" style="shape=curlyBracket;whiteSpace=wrap;html=1;rounded=1;flipH=1;labelPosition=right;verticalLabelPosition=middle;align=left;verticalAlign=middle;size=0.5;" vertex="1" parent="1">
                    <mxGeometry x="256" y="243" width="33" height="242" as="geometry"/>
                </mxCell>
                <mxCell id="19" value="动捕相机" style="text;html=1;strokeColor=none;fillColor=none;align=center;verticalAlign=middle;whiteSpace=wrap;rounded=0;" vertex="1" parent="1">
                    <mxGeometry x="188" y="208" width="60" height="30" as="geometry"/>
                </mxCell>
                <mxCell id="20" value="交换机" style="text;html=1;strokeColor=none;fillColor=none;align=center;verticalAlign=middle;whiteSpace=wrap;rounded=0;" vertex="1" parent="1">
                    <mxGeometry x="340" y="296" width="60" height="30" as="geometry"/>
                </mxCell>
                <mxCell id="21" value="" style="endArrow=none;html=1;curved=1;exitX=0.801;exitY=0.5;exitDx=0;exitDy=0;exitPerimeter=0;entryX=0;entryY=0.5;entryDx=0;entryDy=0;" edge="1" parent="1" source="6">
                    <mxGeometry width="50" height="50" relative="1" as="geometry">
                        <mxPoint x="517" y="342" as="sourcePoint"/>
                        <mxPoint x="510" y="370" as="targetPoint"/>
                    </mxGeometry>
                </mxCell>
                <mxCell id="24" value="OptiTrack主机&lt;br&gt;（Motive）" style="rounded=0;whiteSpace=wrap;html=1;" vertex="1" parent="1">
                    <mxGeometry x="511" y="340" width="120" height="60" as="geometry"/>
                </mxCell>
                <mxCell id="25" value="" style="shape=cube;whiteSpace=wrap;html=1;boundedLbl=1;backgroundOutline=1;darkOpacity=0.05;darkOpacity2=0.1;" vertex="1" parent="1">
                    <mxGeometry x="737" y="215" width="82" height="45" as="geometry"/>
                </mxCell>
                <mxCell id="26" value="路由器" style="text;html=1;strokeColor=none;fillColor=none;align=center;verticalAlign=middle;whiteSpace=wrap;rounded=0;" vertex="1" parent="1">
                    <mxGeometry x="740" y="182" width="60" height="30" as="geometry"/>
                </mxCell>
                <mxCell id="27" value="" style="endArrow=none;dashed=1;html=1;dashPattern=1 3;strokeWidth=2;curved=1;exitX=0.5;exitY=0;exitDx=0;exitDy=0;entryX=0;entryY=0;entryDx=10;entryDy=35;entryPerimeter=0;" edge="1" parent="1" source="24" target="25">
                    <mxGeometry width="50" height="50" relative="1" as="geometry">
                        <mxPoint x="584" y="297" as="sourcePoint"/>
                        <mxPoint x="634" y="247" as="targetPoint"/>
                    </mxGeometry>
                </mxCell>
                <mxCell id="28" value="Ros2 主机" style="swimlane;whiteSpace=wrap;html=1;" vertex="1" parent="1">
                    <mxGeometry x="689" y="340" width="200" height="200" as="geometry"/>
                </mxCell>
                <mxCell id="29" value="uvs_mapserver" style="rounded=0;whiteSpace=wrap;html=1;" vertex="1" parent="28">
                    <mxGeometry x="5" y="26" width="189" height="25" as="geometry"/>
                </mxCell>
                <mxCell id="30" value="uvs_optitrack" style="rounded=0;whiteSpace=wrap;html=1;" vertex="1" parent="28">
                    <mxGeometry x="5" y="74" width="189" height="25" as="geometry"/>
                </mxCell>
                <mxCell id="31" value="uvs_message" style="rounded=0;whiteSpace=wrap;html=1;" vertex="1" parent="28">
                    <mxGeometry x="5" y="121" width="189" height="25" as="geometry"/>
                </mxCell>
                <mxCell id="32" value="uvs_tools" style="rounded=0;whiteSpace=wrap;html=1;" vertex="1" parent="28">
                    <mxGeometry x="5" y="169" width="189" height="25" as="geometry"/>
                </mxCell>
                <mxCell id="46" value="" style="shape=flexArrow;endArrow=classic;html=1;curved=1;entryX=0.5;entryY=1;entryDx=0;entryDy=0;exitX=0.5;exitY=0;exitDx=0;exitDy=0;endWidth=19;endSize=3.33;" edge="1" parent="28" source="30" target="29">
                    <mxGeometry width="50" height="50" relative="1" as="geometry">
                        <mxPoint x="94" y="102" as="sourcePoint"/>
                        <mxPoint x="144" y="52" as="targetPoint"/>
                    </mxGeometry>
                </mxCell>
                <mxCell id="33" value="" style="shape=flexArrow;endArrow=classic;html=1;curved=1;exitX=1;exitY=0.5;exitDx=0;exitDy=0;entryX=0;entryY=0;entryDx=0;entryDy=0;width=5;endSize=7.39;endWidth=9;" edge="1" parent="1" source="24" target="30">
                    <mxGeometry width="50" height="50" relative="1" as="geometry">
                        <mxPoint x="631" y="366" as="sourcePoint"/>
                        <mxPoint x="681" y="316" as="targetPoint"/>
                    </mxGeometry>
                </mxCell>
                <mxCell id="34" value="" style="endArrow=none;html=1;curved=1;exitX=0.5;exitY=0;exitDx=0;exitDy=0;entryX=0;entryY=0;entryDx=51;entryDy=45;entryPerimeter=0;" edge="1" parent="1" source="28" target="25">
                    <mxGeometry width="50" height="50" relative="1" as="geometry">
                        <mxPoint x="794" y="276" as="sourcePoint"/>
                        <mxPoint x="844" y="226" as="targetPoint"/>
                    </mxGeometry>
                </mxCell>
                <mxCell id="35" value="Ros2 车载电脑" style="swimlane;whiteSpace=wrap;html=1;" vertex="1" parent="1">
                    <mxGeometry x="938" y="340" width="200" height="200" as="geometry"/>
                </mxCell>
                <mxCell id="42" value="uvs_manual" style="rounded=0;whiteSpace=wrap;html=1;dashed=1;" vertex="1" parent="35">
                    <mxGeometry x="5.5" y="26" width="189" height="25" as="geometry"/>
                </mxCell>
                <mxCell id="43" value="function packages" style="rounded=0;whiteSpace=wrap;html=1;" vertex="1" parent="35">
                    <mxGeometry x="5.5" y="81" width="189" height="59" as="geometry"/>
                </mxCell>
                <mxCell id="45" value="uvs_embmaster" style="rounded=0;whiteSpace=wrap;html=1;" vertex="1" parent="35">
                    <mxGeometry x="5.5" y="169" width="189" height="25" as="geometry"/>
                </mxCell>
                <mxCell id="48" value="" style="shape=flexArrow;endArrow=classic;html=1;curved=1;exitX=0.5;exitY=1;exitDx=0;exitDy=0;entryX=0.5;entryY=0;entryDx=0;entryDy=0;" edge="1" parent="35" source="43" target="45">
                    <mxGeometry width="50" height="50" relative="1" as="geometry">
                        <mxPoint x="298" y="162" as="sourcePoint"/>
                        <mxPoint x="348" y="112" as="targetPoint"/>
                    </mxGeometry>
                </mxCell>
                <mxCell id="37" value="" style="endArrow=none;dashed=1;html=1;dashPattern=1 3;strokeWidth=2;curved=1;exitX=0;exitY=0;exitDx=82;exitDy=32.5;exitPerimeter=0;entryX=0.5;entryY=0;entryDx=0;entryDy=0;" edge="1" parent="1" source="25" target="35">
                    <mxGeometry width="50" height="50" relative="1" as="geometry">
                        <mxPoint x="851" y="287" as="sourcePoint"/>
                        <mxPoint x="901" y="237" as="targetPoint"/>
                    </mxGeometry>
                </mxCell>
                <mxCell id="47" value="" style="shape=flexArrow;endArrow=classic;html=1;curved=1;entryX=0;entryY=0.5;entryDx=0;entryDy=0;" edge="1" parent="1" target="43">
                    <mxGeometry width="50" height="50" relative="1" as="geometry">
                        <mxPoint x="879" y="380" as="sourcePoint"/>
                        <mxPoint x="935" y="326" as="targetPoint"/>
                    </mxGeometry>
                </mxCell>
            </root>
        </mxGraphModel>
    </diagram>
</mxfile>